<?xml version="1.0" encoding="UTF-8"?>
<svg version="1.1" xmlns="http://www.w3.org/2000/svg" width="3404" height="1260">
<path d="M0 0 C0.71559082 -0.00067474 1.43118164 -0.00134949 2.16845703 -0.00204468 C32.86935143 0.04395851 64.23164664 9.61269168 87.5625 30.25 C88.41457031 30.99378906 89.26664063 31.73757813 90.14453125 32.50390625 C92.64751024 34.72168823 95.10990835 36.97676455 97.5625 39.25 C98.15546875 39.77722656 98.7484375 40.30445313 99.359375 40.84765625 C113.90572204 54.38961266 122.73246559 73.10250747 130.8125 90.875 C139.47889349 109.91774518 150.03206056 127.50299528 162.5625 144.25 C163.02366211 144.86810547 163.48482422 145.48621094 163.95996094 146.12304688 C171.55694299 156.22719476 179.83281072 165.70499205 188.91796875 174.5 C191.5625 177.25 191.5625 177.25 191.5625 179.25 C192.44808594 179.63865234 192.44808594 179.63865234 193.3515625 180.03515625 C195.72947393 181.34174716 197.10697428 182.69545731 198.9375 184.6875 C202.92945922 188.78238266 207.27554811 192.2736723 211.79223633 195.75732422 C216.65285169 199.51258591 221.40024548 203.388021 226.125 207.3125 C232.09282206 212.25800993 238.14118386 217.05690211 244.30859375 221.75 C249.90668133 226.02571826 255.37282044 230.47052047 260.86132812 234.88525391 C263.23286052 236.78778922 265.61770382 238.67347067 268 240.5625 C269.52155492 241.79077333 271.04244723 243.01986817 272.5625 244.25 C273.23410156 244.77335938 273.90570312 245.29671875 274.59765625 245.8359375 C290.65203579 258.92201228 300.13919173 278.90851475 302.5625 299.25 C304.80425262 324.36463481 297.62731258 347.84974706 281.5625 367.25 C267.26639924 384.04681188 247.43859688 393.88565622 225.5625 396.25 C222.61758541 396.40981276 219.68415678 396.42800056 216.7354126 396.4092865 C215.50217739 396.40446334 215.50217739 396.40446334 214.24402833 396.39954275 C205.26883857 396.31286402 196.3611476 395.63528831 187.42089844 394.88891602 C185.59342159 394.74209524 183.76588975 394.59595758 181.93830872 394.45043945 C178.04336995 394.13888872 174.14885046 393.82267098 170.25460052 393.50262642 C164.07247752 392.99463173 157.8894906 392.49773774 151.70635986 392.00218201 C140.79877749 391.12658479 129.89196003 390.2417439 118.98529053 389.3548584 C102.59117326 388.02187958 86.19640472 386.69697181 69.80102754 385.37958282 C64.67230317 384.96720184 59.54375723 384.55281212 54.41558075 384.1336689 C42.8286185 383.18681491 31.24060766 382.26119697 19.64657402 381.40473795 C17.76938036 381.26536042 15.89248938 381.12192049 14.01564026 380.97797775 C-3.21770992 379.70380989 -20.25138472 380.88136887 -37.4375 382.25 C-38.54341271 382.33762966 -38.54341271 382.33762966 -39.6716671 382.42702961 C-50.10244784 383.25680861 -60.5278044 384.14676441 -70.95207977 385.05420303 C-76.31969799 385.52143607 -81.68790374 385.98167602 -87.05621338 386.44088745 C-102.29274477 387.74517253 -117.52859978 389.05719563 -132.76367188 390.37841797 C-141.24114977 391.11354524 -149.71913877 391.84247194 -158.19771028 392.5648793 C-162.651719 392.94466958 -167.10540917 393.32755964 -171.55846405 393.7183876 C-240.92152924 399.8002713 -240.92152924 399.8002713 -268.1953125 378.05078125 C-286.59865856 361.92674869 -298.8104891 340.69403427 -300.6015625 315.98681641 C-301.79747006 291.76470534 -295.16538237 270.54279618 -279.125 252.125 C-272.12029594 244.61480183 -264.42797414 237.91535686 -256.36328125 231.57421875 C-252.53627598 228.53407437 -248.76891848 225.42418297 -245 222.3125 C-240.23926679 218.38321149 -235.47470484 214.45955108 -230.6875 210.5625 C-226.16713925 206.87087206 -221.70900245 203.11024986 -217.26586914 199.32641602 C-213.93021906 196.49143376 -210.54772167 193.72996691 -207.125 191 C-190.63651217 177.5444311 -176.23131947 162.22200038 -163.4375 145.25 C-162.91897461 144.56663574 -162.40044922 143.88327148 -161.86621094 143.17919922 C-148.4810272 125.44362955 -138.2551585 106.24259788 -127.98168945 86.60546875 C-114.84818034 61.53017684 -114.84818034 61.53017684 -108.5 53.5 C-108.08306885 52.97253174 -107.6661377 52.44506348 -107.23657227 51.90161133 C-84.9340682 23.98236772 -53.87793034 4.7017686 -17.97705078 0.45068359 C-11.99855362 -0.02175677 -5.99408671 0.00506954 0 0 Z " fill="#008080" transform="translate(554.4375,561.75)"/>
<path d="M0 0 C1.17113799 0.00138269 1.17113799 0.00138269 2.36593533 0.00279331 C3.70304986 0.00072707 3.70304986 0.00072707 5.06717682 -0.00138092 C6.05662513 0.00221719 7.04607344 0.0058153 8.06550503 0.00952244 C9.64172335 0.00934164 9.64172335 0.00934164 11.24978447 0.00915718 C14.66876651 0.00990666 18.08769478 0.01753646 21.50666714 0.02539158 C23.61046733 0.02686089 25.71426788 0.02788167 27.8180685 0.02844334 C35.64005485 0.03369747 43.46203339 0.04765853 51.28401089 0.06054783 C77.48807339 0.09148533 77.48807339 0.09148533 104.22151089 0.12304783 C104.22151089 46.32304783 104.22151089 92.52304783 104.22151089 140.12304783 C151.41151089 140.12304783 198.60151089 140.12304783 247.22151089 140.12304783 C247.22151089 93.92304783 247.22151089 47.72304783 247.22151089 0.12304783 C282.20151089 0.12304783 317.18151089 0.12304783 353.22151089 0.12304783 C353.22151089 123.54304783 353.22151089 246.96304783 353.22151089 374.12304783 C318.24151089 374.12304783 283.26151089 374.12304783 247.22151089 374.12304783 C247.22151089 326.27304783 247.22151089 278.42304783 247.22151089 229.12304783 C200.03151089 229.12304783 152.84151089 229.12304783 104.22151089 229.12304783 C104.22151089 276.97304783 104.22151089 324.82304783 104.22151089 374.12304783 C86.75213589 374.14367283 69.28276089 374.16429783 51.28401089 374.18554783 C45.75916958 374.19465183 40.23432827 374.20375584 34.54206753 374.21313572 C27.8180685 374.21765232 27.8180685 374.21765232 24.67462063 374.21849155 C22.46966252 374.22003151 20.26470529 374.2235575 18.05975246 374.22862339 C14.72832167 374.23589761 11.39694252 374.23695536 8.06550503 374.23657322 C7.07605672 374.24017133 6.08660841 374.24376944 5.06717682 374.24747658 C3.73006228 374.24541033 3.73006228 374.24541033 2.36593533 374.24330235 C1.19479734 374.24468503 1.19479734 374.24468503 0 374.24609566 C-1.77848911 374.12304783 -1.77848911 374.12304783 -2.77848911 373.12304783 C-2.87716738 371.1484281 -2.90404598 369.17021526 -2.90433025 367.19313145 C-2.906938 365.89593394 -2.90954575 364.59873644 -2.91223252 363.26222992 C-2.91006999 361.80380776 -2.90781331 360.34538573 -2.90547276 358.88696384 C-2.90662358 357.35238737 -2.90821085 355.81781117 -2.9102 354.28323555 C-2.9143986 350.04603265 -2.91230025 345.80885209 -2.90921378 341.57164907 C-2.90696205 337.00991281 -2.91043816 332.44818053 -2.9131937 327.88644505 C-2.91765284 318.94198651 -2.9166743 309.99753633 -2.91378106 301.05307746 C-2.91152759 293.78718513 -2.91121426 286.52129515 -2.91230488 279.25540257 C-2.91245811 278.2233924 -2.91261134 277.19138223 -2.91276922 276.12809902 C-2.91308893 274.03194229 -2.91341314 271.93578555 -2.91374181 269.83962882 C-2.91659702 250.1591718 -2.91330894 230.47871944 -2.90794145 210.79826319 C-2.90347337 193.89187397 -2.90424929 176.98549161 -2.90886021 160.07910252 C-2.91420525 140.4716423 -2.91632233 120.86418616 -2.91324794 101.25672531 C-2.91292938 99.16804791 -2.91261501 97.0793705 -2.91230488 94.99069309 C-2.9121506 93.96287977 -2.91199633 92.93506645 -2.91183738 91.87610728 C-2.91097201 84.61443583 -2.91243552 77.35276697 -2.91478443 70.09109592 C-2.91758185 61.24801854 -2.9168454 52.40495004 -2.91150369 43.56187367 C-2.90886588 39.04539358 -2.90786294 34.52892832 -2.91115284 30.01244831 C-2.91411419 25.88474878 -2.91252571 21.75707796 -2.90717529 17.62938106 C-2.90605041 16.12940337 -2.90664383 14.62942329 -2.90905108 13.1294471 C-2.91205445 11.10395442 -2.90840208 9.07845503 -2.90433025 7.05296421 C-2.9041679 5.9238383 -2.90400555 4.79471239 -2.90383828 3.63137054 C-2.73181192 0.18900511 -2.73181192 0.18900511 0 0 Z " fill="#008080" transform="translate(1086.778489112854,438.8769521713257)"/>
<path d="M0 0 C33.66 0 67.32 0 102 0 C102.33 42.9 102.66 85.8 103 130 C105.31 127.69 107.62 125.38 110 123 C131.14703354 107.1333782 156.08795837 101.54444344 182.125 101.6875 C183.21282776 101.69123123 183.21282776 101.69123123 184.32263184 101.69503784 C222.33744731 101.89628783 257.93884812 115.76237427 284.94140625 142.91015625 C291.45834409 149.67813348 297.0060971 157.03543323 302 165 C302.37898438 165.60295898 302.75796875 166.20591797 303.1484375 166.82714844 C312.71040386 182.3011695 318.68685024 199.14700395 322 217 C322.22558594 218.20269531 322.45117188 219.40539062 322.68359375 220.64453125 C328.89421601 262.23428444 322.82679235 307.97810416 298.0625 342.6875 C274.29793476 374.31157899 242.35327252 394.1011342 203 400 C198.99562618 400.53014204 195.0357316 400.83798158 191 401 C189.71351563 401.05285156 188.42703125 401.10570312 187.1015625 401.16015625 C156.24271661 401.98796434 126.69406848 395.48584482 103 375 C101.35 373.35 99.7 371.7 98 370 C97.505 382.87 97.505 382.87 97 396 C64.99 396 32.98 396 0 396 C0 265.32 0 134.64 0 0 Z M114 205 C111.74652752 208.21405407 109.82391315 211.52639824 108 215 C107.61972656 215.71929688 107.23945312 216.43859375 106.84765625 217.1796875 C98.14861211 235.10300108 97.93057361 258.44419581 103.625 277.375 C109.59612326 293.04642387 119.34507746 306.77385179 134.68359375 314.3203125 C137.10008727 315.31339203 139.51740792 316.18821816 142 317 C143.11375 317.391875 144.2275 317.78375 145.375 318.1875 C161.31966589 321.76130442 177.82359888 319.67314376 191.9375 311.24609375 C207.245687 300.72171519 216.20330515 286.01970387 219.97021484 268.00073242 C223.61505619 247.61444241 220.96202707 226.25388369 209.8046875 208.57421875 C200.37797656 195.12789297 188.76571579 187.33661584 172.86328125 183.62109375 C150.26079261 179.98732662 128.93808573 187.55157206 114 205 Z " fill="#008080" transform="translate(1878,417)"/>
<path d="M0 0 C31.700625 -0.061875 63.40125 -0.12375 96.0625 -0.1875 C106.033479 -0.21481201 116.00445801 -0.24212402 126.27758789 -0.27026367 C138.55163574 -0.28381348 138.55163574 -0.28381348 144.31663513 -0.28633118 C148.3015098 -0.28910082 152.28626182 -0.30024076 156.27110291 -0.31672668 C208.09334628 -0.5214712 261.22179533 4.67667163 300 43 C300.77601563 43.70382812 301.55203125 44.40765625 302.3515625 45.1328125 C324.09271689 65.33748955 335.98336799 97.00495589 337.12597656 126.22119141 C337.46119064 141.65589027 337.54133463 156.89355877 334 172 C333.83371094 172.71897461 333.66742187 173.43794922 333.49609375 174.17871094 C328.53564247 194.76458377 317.76239508 213.85908197 303 229 C302.195625 229.845625 301.39125 230.69125 300.5625 231.5625 C299.716875 232.366875 298.87125 233.17125 298 234 C297.36449219 234.63035156 296.72898437 235.26070312 296.07421875 235.91015625 C261.17994239 269.16234902 210.16744589 276.25529493 164.03125 276.09765625 C162.55826862 276.09618001 161.0852867 276.09516352 159.61230469 276.09460449 C154.24152829 276.0894306 148.87076323 276.07547009 143.5 276.0625 C131.455 276.041875 119.41 276.02125 107 276 C107 308.01 107 340.02 107 373 C71.69 373 36.38 373 0 373 C0 249.91 0 126.82 0 0 Z M107 83 C107 118.97 107 154.94 107 192 C122.8709375 192.061875 122.8709375 192.061875 139.0625 192.125 C142.371604 192.14320801 145.68070801 192.16141602 149.09008789 192.18017578 C151.7592757 192.18602562 154.42846532 192.19112001 157.09765625 192.1953125 C157.76832626 192.20053925 158.43899628 192.20576599 159.12998962 192.21115112 C178.23622742 192.35227182 198.66100559 190.67863756 214 178 C225.34998129 166.77415913 229.7605674 153.33208191 230.3125 137.625 C229.95941373 123.95271504 225.75604883 109.77333717 216.3125 99.5625 C194.22774025 79.72868692 162.77445388 82.70113426 135.1875 82.875 C125.885625 82.91625 116.58375 82.9575 107 83 Z " fill="#08323E" transform="translate(2257,439)"/>
<path d="M0 0 C33.66 0 67.32 0 102 0 C102.03738281 10.87324219 102.07476563 21.74648438 102.11328125 32.94921875 C102.14358668 39.87175713 102.17463249 46.79427934 102.20898438 53.71679688 C102.26327387 64.68447335 102.31469429 75.65210502 102.34643555 86.61987305 C102.36957626 94.61100917 102.40314964 102.60202562 102.44870156 110.59306651 C102.47241968 114.81522727 102.4912873 119.03727109 102.49761391 123.25949669 C101.06499399 161.65991633 101.06499399 161.65991633 117 195 C125.22949721 202.9463723 136.40421989 206.61810453 147.6796875 207.06640625 C162.57242252 206.76855155 176.43071563 202.96779838 187 192 C205.43200029 168.88638941 203.306022 139.32857728 203.40471697 111.29819012 C203.42057577 107.37178639 203.44729049 103.44545511 203.4727478 99.519104 C203.5191399 92.11786066 203.55607259 84.71660306 203.58942068 77.31529069 C203.6351554 67.2899697 203.69588037 57.2647395 203.75566864 47.23949432 C203.84918987 31.49304221 203.92300961 15.74656174 204 0 C237.66 0 271.32 0 306 0 C306 95.7 306 191.4 306 290 C273.66 290 241.32 290 208 290 C207.67 281.09 207.34 272.18 207 263 C203.7 265.97 200.4 268.94 197 272 C167.85411142 293.23233823 132.16933423 298.55382591 97.07226562 293.47875977 C68.15213822 288.75662897 42.26353841 275.39014569 24 252 C4.58906152 224.09170833 -0.18991728 191.70088833 -0.11352539 158.48144531 C-0.11324277 156.74570721 -0.11340272 155.00996899 -0.1139679 153.27423096 C-0.11425294 148.59739412 -0.10840371 143.92058331 -0.10139394 139.24375248 C-0.0951115 134.34306536 -0.09455275 129.44237754 -0.09336853 124.54168701 C-0.09026957 115.27726389 -0.08207564 106.01285268 -0.07201904 96.74843478 C-0.05871487 84.21830575 -0.0533464 71.68817342 -0.04751682 59.15803909 C-0.03813469 39.43868383 -0.01820621 19.71935367 0 0 Z " fill="#008080" transform="translate(1508,523)"/>
<path d="M0 0 C0.70664795 -0.00100708 1.4132959 -0.00201416 2.14135742 -0.00305176 C19.8679699 0.01396803 36.72308856 2.33190358 53.75 7.25 C54.95527344 7.59675781 56.16054687 7.94351563 57.40234375 8.30078125 C72.52574116 12.99758877 87.01725776 19.79574827 99.75 29.25 C100.54921875 29.8275 101.3484375 30.405 102.171875 31 C132.47142807 53.97221017 149.12826469 87.22500752 154.75 124.25 C154.85602539 124.92554932 154.96205078 125.60109863 155.07128906 126.29711914 C156.01821981 133.32297722 155.90082584 140.40377684 155.88037109 147.47875977 C155.87502001 149.67926958 155.88033834 151.87957457 155.88671875 154.08007812 C155.88605767 155.51041711 155.8847759 156.94075596 155.8828125 158.37109375 C155.88168457 159.6439624 155.88055664 160.91683105 155.87939453 162.22827148 C155.72860783 166.91489278 155.21657755 171.58422448 154.75 176.25 C51.295 176.745 51.295 176.745 -54.25 177.25 C-44.37185236 197.00629528 -36.19776884 208.74963362 -15.25 216.25 C10.1318857 224.02793792 37.6334923 221.68185861 61.1875 209.5625 C68.0759637 205.68009665 74.39890881 200.94146298 80.75 196.25 C83.72636205 197.58579648 85.78951858 199.04234603 88.0625 201.375 C88.59488281 201.91382813 89.12726562 202.45265625 89.67578125 203.0078125 C91.49039467 204.96937202 93.23627135 206.96842371 94.98046875 208.9921875 C98.71474143 213.27875015 102.69310116 217.27081953 106.75 221.25 C111.38154108 225.79281424 115.80035215 230.40775313 120.03125 235.32617188 C123.31075301 238.99697923 126.94200379 242.33258233 130.55859375 245.66796875 C132.25 247.296875 132.25 247.296875 134.75 250.25 C134.00891594 257.0947575 126.060204 262.47421675 121.03515625 266.68798828 C101.8558818 282.10295636 78.91269373 291.90343173 54.75 296.25 C53.50597412 296.47429687 53.50597412 296.47429687 52.23681641 296.703125 C1.73293224 305.32324722 -55.24979014 298.54940338 -97.9375 268.74609375 C-101.16188391 266.38608494 -104.2180945 263.85327035 -107.25 261.25 C-107.7867334 260.79012695 -108.3234668 260.33025391 -108.87646484 259.85644531 C-138.170663 234.50190052 -155.33772813 199.949204 -158.25 161.25 C-159.56237448 133.31263834 -155.73141705 106.42523059 -143.25 81.25 C-142.92547852 80.59290039 -142.60095703 79.93580078 -142.26660156 79.25878906 C-125.00507638 45.01981026 -93.40819139 20.69456072 -57.4296875 8.58984375 C-46.52451886 5.08517888 -35.60205345 2.72481982 -24.25 1.25 C-23.59596191 1.1557373 -22.94192383 1.06147461 -22.26806641 0.96435547 C-14.87430146 -0.0038138 -7.44615619 0.00737759 0 0 Z M-43.25 91.25 C-49.72814907 99.50674803 -56.25 110.51738994 -56.25 121.25 C-17.97 121.25 20.31 121.25 59.75 121.25 C59.1595673 114.82829918 59.1595673 114.82829918 57.21875 109.3203125 C56.90752197 108.67505615 56.59629395 108.0297998 56.27563477 107.36499023 C55.93717529 106.70829346 55.59871582 106.05159668 55.25 105.375 C54.89542725 104.68027588 54.54085449 103.98555176 54.17553711 103.26977539 C50.88267421 97.07343513 46.89976063 92.0363524 41.75 87.25 C41.05261719 86.59515625 40.35523437 85.9403125 39.63671875 85.265625 C16.35554084 65.34681099 -22.90151094 69.51050095 -43.25 91.25 Z " fill="#08323E" transform="translate(2779.25,517.75)"/>
<path d="M0 0 C33.66 0 67.32 0 102 0 C102 24.75 102 49.5 102 75 C123.78 75 145.56 75 168 75 C168 100.41 168 125.82 168 152 C146.22 152 124.44 152 102 152 C102.09094707 169.48059092 102.09094707 169.48059092 102.20898438 186.9609375 C102.26317612 194.09731023 102.31429131 201.23360664 102.34643555 208.37011719 C102.37257046 214.1279753 102.41304449 219.88557508 102.46318626 225.6432724 C102.47978628 227.83269776 102.49134307 230.02216773 102.49761391 232.21164703 C101.95322121 252.47540852 101.95322121 252.47540852 110.26171875 270.31640625 C116.31064741 276.17503154 123.18535969 279.04899886 131.5625 279.3125 C141.48063976 279.11585782 150.33470565 276.85470894 158.9765625 271.98828125 C161 271 161 271 164 271 C164.38464165 272.10087952 164.38464165 272.10087952 164.77705383 273.22399902 C167.20337915 280.1678453 169.63057954 287.11138479 172.05874348 294.05458832 C173.30681033 297.62346537 174.55454812 301.19245673 175.80151367 304.76171875 C177.00673155 308.211444 178.21284021 311.66085664 179.41954613 315.11006165 C179.87791335 316.42073151 180.33596891 317.73151042 180.79369545 319.04240417 C183.70465493 327.40288254 183.70465493 327.40288254 186.80175781 335.6953125 C188 339 188 339 188.05859375 341.78125 C185.39118596 347.37197924 176.52616676 349.72945793 170.91308594 351.75195312 C142.71617438 361.12915669 108.98959884 362.54520721 80 356 C79.23880859 355.83371094 78.47761719 355.66742187 77.69335938 355.49609375 C66.25590305 352.9118986 56.21148496 348.70912229 46 343 C45.03835937 342.49082031 44.07671875 341.98164062 43.0859375 341.45703125 C23.93397777 330.46866498 10.90835587 310.95806562 4.8125 290.0859375 C0.05018089 272.48523504 -0.27654334 255.38084808 -0.1953125 237.25390625 C-0.1915753 234.78669856 -0.18873168 232.31948938 -0.18673706 229.85227966 C-0.17915623 223.40635979 -0.15955629 216.96053222 -0.1373291 210.51464844 C-0.11675017 203.91798145 -0.10770975 197.32129932 -0.09765625 190.72460938 C-0.07630443 177.81635948 -0.04116843 164.90820191 0 152 C-13.86 152 -27.72 152 -42 152 C-42 126.59 -42 101.18 -42 75 C-28.14 75 -14.28 75 0 75 C0 50.25 0 25.5 0 0 Z " fill="#08323E" transform="translate(2993,458)"/>
<path d="M0 0 C2.72746105 2.18420142 5.34162086 4.44180643 7.92578125 6.79296875 C8.54710937 7.33308594 9.1684375 7.87320312 9.80859375 8.4296875 C33.43796363 30.24564063 43.16759736 65.92238041 44.828125 96.91357422 C46.0926996 134.19955641 36.27067352 170.69228918 10.92578125 198.79296875 C-1.91072037 212.01520832 -17.60450713 220.4333637 -36.07421875 221.79296875 C-58.59129465 222.00878737 -75.38563768 213.21848193 -91.26171875 197.91796875 C-95.83633568 193.22202813 -99.6004061 188.34472412 -103.07421875 182.79296875 C-104.04488281 181.25382812 -104.04488281 181.25382812 -105.03515625 179.68359375 C-125.26935622 146.0374528 -129.01654404 103.85671946 -120.1953125 66.0234375 C-119.2675056 62.56454232 -118.21592271 59.18701385 -117.07421875 55.79296875 C-116.76726074 54.85855957 -116.76726074 54.85855957 -116.45410156 53.90527344 C-111.49491568 38.99806445 -104.39680169 25.69508486 -94.07421875 13.79296875 C-93.62046875 13.19613281 -93.16671875 12.59929687 -92.69921875 11.984375 C-70.39863558 -16.75417414 -28.84061261 -20.7051412 0 0 Z " fill="#008080" transform="translate(482.07421875,308.20703125)"/>
<path d="M0 0 C10.9419926 8.59948151 19.15543912 18.7466831 25.8984375 30.8671875 C26.50558594 31.94613281 27.11273437 33.02507812 27.73828125 34.13671875 C43.96052273 64.62885318 46.97022098 103.09403127 37.421875 136.12890625 C32.42593192 152.42257671 25.69665385 166.63988278 14.8984375 179.8671875 C14.43308594 180.49625 13.96773437 181.1253125 13.48828125 181.7734375 C2.42406186 196.11970362 -16.08966048 205.96121146 -33.77734375 208.3671875 C-52.47200533 210.32387388 -69.97962844 205.06547808 -85.1015625 193.8671875 C-110.08504132 173.59450768 -123.01280087 144.11236706 -126.34765625 112.53710938 C-129.43661821 79.18173948 -122.40105934 43.43304345 -101.1015625 16.8671875 C-92.61106395 6.69973995 -84.05767709 -1.29418512 -72.1015625 -7.1328125 C-71.36164062 -7.51308594 -70.62171875 -7.89335937 -69.859375 -8.28515625 C-46.46115072 -19.64143727 -20.73207116 -14.25656279 0 0 Z " fill="#008080" transform="translate(710.1015625,327.1328125)"/>
<path d="M0 0 C0.98226562 0.70382812 0.98226562 0.70382812 1.984375 1.421875 C21.14276375 16.20120347 32.78438478 43.76157992 36.31689453 67.09301758 C40.04979616 97.17993762 34.39956 128.06729333 16.80859375 153.12109375 C14.63744958 155.85929883 12.37681308 158.43884663 10 161 C9.15695312 161.93457031 8.31390625 162.86914062 7.4453125 163.83203125 C-7.00595487 179.14199712 -26.1684376 187.66909474 -47.125 188.375 C-66.18463074 188.02740795 -83.95320196 180.92017772 -98 168 C-98.81726563 167.27425781 -99.63453125 166.54851562 -100.4765625 165.80078125 C-121.71757132 145.90788599 -130.47160247 117.72250039 -132.22265625 89.3984375 C-132.95061179 60.34351631 -123.96864399 30.47078007 -104.11328125 8.7734375 C-75.42206719 -21.38520393 -33.17591948 -25.19919567 0 0 Z " fill="#008080" transform="translate(321,530)"/>
<path d="M0 0 C19.65027862 16.14767839 30.86378633 40.97251786 33.78393555 65.97387695 C36.35908808 96.08858528 30.27882598 126.38946012 10.72802734 150.11865234 C-1.89082855 164.72749064 -17.63354261 173.18152325 -36.89697266 175.05615234 C-56.28571162 176.0586504 -72.4274825 169.4273444 -86.81494141 156.79052734 C-107.6932887 136.7018301 -116.56488668 108.46090769 -117.20947266 80.05615234 C-116.79576584 51.17941658 -107.18309825 25.11515317 -87.02197266 4.24365234 C-86.35681641 3.54111328 -85.69166016 2.83857422 -85.00634766 2.11474609 C-61.50170743 -20.80676375 -24.88990437 -19.50204029 0 0 Z " fill="#008080" transform="translate(868.02197265625,542.75634765625)"/>
</svg>
