<svg id="svg5059" xmlns="http://www.w3.org/2000/svg" viewBox="0 0 82.98 34.17"><defs><style>.cls-1{fill:#0066c5;}.cls-2{fill:#ff3131;}</style></defs><title>LogoArtboard 4@2</title><path id="path5138" class="cls-1" d="M4.89,16.9v-13h7.23l.3.87,3.09,9.11c1.54,4.53,2.81,8.22,2.82,8.21s1.38-4.12,3-9.11l3-9.08h7.13V29.87H24.45V22.14h-.26l-1.27,3.52-1.27,3.52H15L13.6,25.58,12.24,22l-.12,0L12,22v3.07c0,1.69,0,3.45,0,3.92l0,.85H4.89Z"/><path id="path5156" class="cls-1" d="M32.49,16.92V4H38c7.21,0,7.22,0,8.69.19,4.64.64,7.61,2.57,8.59,5.57a6.28,6.28,0,0,1,.3,2.35,7.72,7.72,0,0,1-.08,1.49,7.49,7.49,0,0,1-1.31,3.11c-1.68,2.26-5,3.71-9.16,4-.33,0-1.7,0-3,0H39.55v9.13H32.49Zm11.89-.65c2.32-.3,3.83-1.37,4.22-3a4.92,4.92,0,0,0,0-1.83C48.27,9.84,47.05,8.79,45,8.36a14.39,14.39,0,0,0-3-.11H39.55v8.13l2.16,0c1.58,0,2.3,0,2.66-.08Z"/><path id="path5158" class="cls-1" d="M61,18.19l-1-.75a8,8,0,0,0-1.05.71l-1,.71.36-1,.4-1.11,0-.11-.75-.5-1.08-.71-.33-.22h1.32l1.32,0,.4-1.12.4-1.12s.19.5.41,1.11l.41,1.14s.28,0,1.32,0h1.31l-1.1.7c-.82.52-1.1.71-1.1.72L62,18.91s0,0,0,0l-1-.74Z"/><path id="path5164" class="cls-2" d="M62.22,12.15l-4-1.57-1.81-.71-.06,0,.11-.17a10.28,10.28,0,0,1,2.94-2.85,14.22,14.22,0,0,1,5.57-2.24,10.76,10.76,0,0,1,3.71,0A15,15,0,0,1,73.1,6.11a11.57,11.57,0,0,1,4.63,4.2l.13.22H72l-.18-.13a8.26,8.26,0,0,0-3.11-1.34,9.66,9.66,0,0,0-4,0l-.19,0V13Z"/><path id="path5166" class="cls-2" d="M66.16,30.22a13.48,13.48,0,0,1-6.83-2.46,12.35,12.35,0,0,1-1.78-1.51,12.05,12.05,0,0,1-2.41-3.35A11.87,11.87,0,0,1,54,19.31a7.32,7.32,0,0,1-.08-.89l2.82,1.16L62,21.77l2.45,1v2.66l.18,0a10.37,10.37,0,0,0,1.56.27,13.76,13.76,0,0,0,1.88,0A7.82,7.82,0,0,0,70.83,25a6.29,6.29,0,0,0,1.68-1.17l.2-.19H75.4c2.14,0,2.69,0,2.69,0a9.61,9.61,0,0,1-.53,1,9.18,9.18,0,0,1-1.29,1.62,12.08,12.08,0,0,1-2.52,2,18,18,0,0,1-1.9.94,13.8,13.8,0,0,1-4.2,1c-.3,0-1.24,0-1.49,0Z"/></svg>