<svg width="301" height="166" viewBox="0 0 301 166" fill="none" xmlns="http://www.w3.org/2000/svg">
<path fill-rule="evenodd" clip-rule="evenodd" d="M54.6629 74.381L29.5266 0H0V107.905H30.4851V74.381L41.5706 104.762H68.8061L79.8916 74.381V107.905H108.274V0H79.7993L54.6629 74.381Z" fill="white"/>
<path fill-rule="evenodd" clip-rule="evenodd" d="M208.139 39.0725C205.477 56.5824 185.448 70.1905 161.135 70.1905C160.683 70.1905 160.232 70.1858 159.784 70.1764V70.1905H142.964V107.905H111.428V0H159.784V0.0139861C160.203 0.00525077 160.624 0.000571453 161.047 0H161.223C185.496 0.0328365 205.48 13.6291 208.139 31.1179V39.0725ZM141.913 35.6191V52.381H160.309H160.835V52.3743C170.751 52.1208 178.705 44.7163 178.705 35.6191C178.705 26.5219 170.751 19.1174 160.835 18.8639V18.8572H160.309H141.913V35.6191Z" fill="white"/>
<path fill-rule="evenodd" clip-rule="evenodd" d="M273.193 29.3332H299.861C290.538 13.0625 272.962 2.09512 252.815 2.09512C234.267 2.09512 217.898 11.3911 208.142 25.5632L242.828 39.3905V31.2114V29.3332V23.682C249.51 21.5686 264.889 19.7612 273.193 29.3332ZM242.828 77.7037L198.789 59.5273C200.589 87.7028 224.089 110 252.815 110C273.815 110 292.022 98.084 301 80.6666H276.078C266.859 93.0359 250.133 90.6444 242.828 87.8525V80.6666V77.8133V77.7037Z" fill="white"/>
<path d="M223.907 35.619L227.447 46.4773H238.903L229.635 53.1881L233.175 64.0465L223.907 57.3357L214.639 64.0465L218.179 53.1881L208.911 46.4773H220.367L223.907 35.619Z" fill="white"/>
<path d="M1.34082 136V123.115H5.23438L7.57227 131.904L9.88379 123.115H13.7861V136H11.3691V125.857L8.81152 136H6.30664L3.75781 125.857V136H1.34082ZM16.291 136V123.115H18.8926V136H16.291ZM21.4062 136V123.115H23.9375L29.2109 131.72V123.115H31.6279V136H29.0176L23.8232 127.598V136H21.4062ZM34.3086 136V123.115H36.9102V136H34.3086ZM38.7383 131.808L41.2695 131.562C41.4219 132.411 41.7295 133.035 42.1924 133.434C42.6611 133.832 43.291 134.031 44.082 134.031C44.9199 134.031 45.5498 133.855 45.9717 133.504C46.3994 133.146 46.6133 132.73 46.6133 132.256C46.6133 131.951 46.5225 131.693 46.3408 131.482C46.165 131.266 45.8545 131.078 45.4092 130.92C45.1045 130.814 44.4102 130.627 43.3262 130.357C41.9316 130.012 40.9531 129.587 40.3906 129.083C39.5996 128.374 39.2041 127.51 39.2041 126.49C39.2041 125.834 39.3887 125.222 39.7578 124.653C40.1328 124.079 40.6689 123.643 41.3662 123.344C42.0693 123.045 42.916 122.896 43.9062 122.896C45.5234 122.896 46.7393 123.25 47.5537 123.959C48.374 124.668 48.8047 125.614 48.8457 126.798L46.2441 126.912C46.1328 126.25 45.8926 125.775 45.5234 125.488C45.1602 125.195 44.6123 125.049 43.8799 125.049C43.124 125.049 42.5322 125.204 42.1045 125.515C41.8291 125.714 41.6914 125.98 41.6914 126.314C41.6914 126.619 41.8203 126.88 42.0781 127.097C42.4062 127.372 43.2031 127.659 44.4688 127.958C45.7344 128.257 46.6689 128.567 47.2725 128.89C47.8818 129.206 48.3564 129.643 48.6963 130.199C49.042 130.75 49.2148 131.433 49.2148 132.247C49.2148 132.985 49.0098 133.677 48.5996 134.321C48.1895 134.966 47.6094 135.446 46.8594 135.763C46.1094 136.073 45.1748 136.229 44.0557 136.229C42.4268 136.229 41.1758 135.854 40.3027 135.104C39.4297 134.348 38.9082 133.249 38.7383 131.808ZM54.3037 136V125.295H50.4805V123.115H60.7197V125.295H56.9053V136H54.3037ZM62.4072 136V123.115H71.9609V125.295H65.0088V128.151H71.4775V130.322H65.0088V133.829H72.207V136H62.4072ZM65.7119 122.377L66.9248 119.749H69.6934L67.2764 122.377H65.7119ZM74.4219 136V123.115H79.8975C81.2744 123.115 82.2734 123.232 82.8945 123.467C83.5215 123.695 84.0225 124.105 84.3975 124.697C84.7725 125.289 84.96 125.966 84.96 126.728C84.96 127.694 84.6758 128.494 84.1074 129.127C83.5391 129.754 82.6895 130.149 81.5586 130.313C82.1211 130.642 82.584 131.002 82.9473 131.395C83.3164 131.787 83.8115 132.484 84.4326 133.486L86.0059 136H82.8945L81.0137 133.196C80.3457 132.194 79.8887 131.564 79.6426 131.307C79.3965 131.043 79.1357 130.864 78.8604 130.771C78.585 130.671 78.1484 130.621 77.5508 130.621H77.0234V136H74.4219ZM77.0234 128.564H78.9482C80.1963 128.564 80.9756 128.512 81.2861 128.406C81.5967 128.301 81.8398 128.119 82.0156 127.861C82.1914 127.604 82.2793 127.281 82.2793 126.895C82.2793 126.461 82.1621 126.112 81.9277 125.849C81.6992 125.579 81.374 125.409 80.9521 125.339C80.7412 125.31 80.1084 125.295 79.0537 125.295H77.0234V128.564ZM87.3418 136V123.115H89.9434V136H87.3418ZM91.9033 129.637C91.9033 128.324 92.0996 127.223 92.4922 126.332C92.7852 125.676 93.1836 125.087 93.6875 124.565C94.1973 124.044 94.7539 123.657 95.3574 123.405C96.1602 123.065 97.0859 122.896 98.1348 122.896C100.033 122.896 101.551 123.484 102.688 124.662C103.83 125.84 104.401 127.478 104.401 129.575C104.401 131.655 103.836 133.284 102.705 134.462C101.574 135.634 100.062 136.22 98.1699 136.22C96.2539 136.22 94.7305 135.637 93.5996 134.471C92.4688 133.299 91.9033 131.688 91.9033 129.637ZM94.584 129.549C94.584 131.008 94.9209 132.115 95.5947 132.871C96.2686 133.621 97.124 133.996 98.1611 133.996C99.1982 133.996 100.048 133.624 100.71 132.88C101.378 132.13 101.712 131.008 101.712 129.514C101.712 128.037 101.387 126.936 100.736 126.209C100.092 125.482 99.2334 125.119 98.1611 125.119C97.0889 125.119 96.2246 125.488 95.5684 126.227C94.9121 126.959 94.584 128.066 94.584 129.549ZM111.45 136V123.115H115.625C117.207 123.115 118.238 123.18 118.719 123.309C119.457 123.502 120.075 123.924 120.573 124.574C121.071 125.219 121.32 126.054 121.32 127.079C121.32 127.87 121.177 128.535 120.89 129.074C120.603 129.613 120.236 130.038 119.791 130.349C119.352 130.653 118.903 130.855 118.446 130.955C117.825 131.078 116.926 131.14 115.748 131.14H114.052V136H111.45ZM114.052 125.295V128.951H115.476C116.501 128.951 117.187 128.884 117.532 128.749C117.878 128.614 118.147 128.403 118.341 128.116C118.54 127.829 118.64 127.495 118.64 127.114C118.64 126.646 118.502 126.259 118.227 125.954C117.951 125.649 117.603 125.459 117.181 125.383C116.87 125.324 116.246 125.295 115.309 125.295H114.052ZM123.438 123.115H126.04V130.094C126.04 131.201 126.072 131.919 126.137 132.247C126.248 132.774 126.512 133.199 126.928 133.521C127.35 133.838 127.924 133.996 128.65 133.996C129.389 133.996 129.945 133.847 130.32 133.548C130.695 133.243 130.921 132.871 130.997 132.432C131.073 131.992 131.111 131.263 131.111 130.243V123.115H133.713V129.883C133.713 131.43 133.643 132.522 133.502 133.161C133.361 133.8 133.101 134.339 132.72 134.778C132.345 135.218 131.841 135.569 131.208 135.833C130.575 136.091 129.749 136.22 128.729 136.22C127.499 136.22 126.564 136.079 125.926 135.798C125.293 135.511 124.792 135.142 124.423 134.69C124.054 134.233 123.811 133.756 123.693 133.258C123.523 132.52 123.438 131.43 123.438 129.988V123.115ZM126.98 122.377L128.193 119.749H130.962L128.545 122.377H126.98ZM136.473 123.115H141.623C142.643 123.115 143.401 123.159 143.899 123.247C144.403 123.329 144.852 123.505 145.244 123.774C145.643 124.044 145.974 124.404 146.237 124.855C146.501 125.301 146.633 125.802 146.633 126.358C146.633 126.962 146.469 127.516 146.141 128.02C145.818 128.523 145.379 128.901 144.822 129.153C145.607 129.382 146.211 129.771 146.633 130.322C147.055 130.873 147.266 131.521 147.266 132.265C147.266 132.851 147.128 133.422 146.853 133.979C146.583 134.529 146.211 134.972 145.736 135.306C145.268 135.634 144.688 135.836 143.996 135.912C143.562 135.959 142.517 135.988 140.858 136H136.473V123.115ZM139.074 125.26V128.239H140.779C141.793 128.239 142.423 128.225 142.669 128.195C143.114 128.143 143.463 127.99 143.715 127.738C143.973 127.48 144.102 127.144 144.102 126.728C144.102 126.329 143.99 126.007 143.768 125.761C143.551 125.509 143.226 125.356 142.792 125.304C142.534 125.274 141.793 125.26 140.568 125.26H139.074ZM139.074 130.384V133.829H141.482C142.42 133.829 143.015 133.803 143.267 133.75C143.653 133.68 143.967 133.51 144.207 133.24C144.453 132.965 144.576 132.599 144.576 132.142C144.576 131.755 144.482 131.427 144.295 131.157C144.107 130.888 143.835 130.691 143.478 130.568C143.126 130.445 142.358 130.384 141.175 130.384H139.074ZM149.542 136V123.221H152.144V133.829H158.612V136H149.542ZM160.396 136V123.115H162.998V136H160.396ZM173.729 131.263L176.252 132.062C175.865 133.469 175.221 134.515 174.318 135.2C173.422 135.88 172.282 136.22 170.899 136.22C169.188 136.22 167.782 135.637 166.681 134.471C165.579 133.299 165.028 131.699 165.028 129.672C165.028 127.527 165.582 125.863 166.689 124.68C167.797 123.49 169.253 122.896 171.058 122.896C172.634 122.896 173.914 123.361 174.898 124.293C175.484 124.844 175.924 125.635 176.217 126.666L173.642 127.281C173.489 126.613 173.17 126.086 172.684 125.699C172.203 125.312 171.617 125.119 170.926 125.119C169.971 125.119 169.194 125.462 168.597 126.147C168.005 126.833 167.709 127.943 167.709 129.479C167.709 131.107 168.002 132.268 168.588 132.959C169.174 133.65 169.936 133.996 170.873 133.996C171.564 133.996 172.159 133.776 172.657 133.337C173.155 132.897 173.513 132.206 173.729 131.263ZM177.966 129.637C177.966 128.324 178.162 127.223 178.555 126.332C178.848 125.676 179.246 125.087 179.75 124.565C180.26 124.044 180.816 123.657 181.42 123.405C182.223 123.065 183.148 122.896 184.197 122.896C186.096 122.896 187.613 123.484 188.75 124.662C189.893 125.84 190.464 127.478 190.464 129.575C190.464 131.655 189.898 133.284 188.768 134.462C187.637 135.634 186.125 136.22 184.232 136.22C182.316 136.22 180.793 135.637 179.662 134.471C178.531 133.299 177.966 131.688 177.966 129.637ZM180.646 129.549C180.646 131.008 180.983 132.115 181.657 132.871C182.331 133.621 183.187 133.996 184.224 133.996C185.261 133.996 186.11 133.624 186.772 132.88C187.44 132.13 187.774 131.008 187.774 129.514C187.774 128.037 187.449 126.936 186.799 126.209C186.154 125.482 185.296 125.119 184.224 125.119C183.151 125.119 182.287 125.488 181.631 126.227C180.975 126.959 180.646 128.066 180.646 129.549ZM197.504 123.115H202.259C203.331 123.115 204.148 123.197 204.711 123.361C205.467 123.584 206.114 123.979 206.653 124.548C207.192 125.116 207.603 125.813 207.884 126.64C208.165 127.46 208.306 128.474 208.306 129.681C208.306 130.741 208.174 131.655 207.91 132.423C207.588 133.36 207.128 134.119 206.53 134.699C206.079 135.139 205.47 135.481 204.702 135.728C204.128 135.909 203.36 136 202.399 136H197.504V123.115ZM200.105 125.295V133.829H202.048C202.774 133.829 203.299 133.788 203.621 133.706C204.043 133.601 204.392 133.422 204.667 133.17C204.948 132.918 205.177 132.505 205.353 131.931C205.528 131.351 205.616 130.562 205.616 129.566C205.616 128.57 205.528 127.806 205.353 127.272C205.177 126.739 204.931 126.323 204.614 126.024C204.298 125.726 203.896 125.523 203.41 125.418C203.047 125.336 202.335 125.295 201.274 125.295H200.105ZM210.521 136V123.115H220.074V125.295H213.122V128.151H219.591V130.322H213.122V133.829H220.32V136H210.521ZM235.78 131.263L238.303 132.062C237.916 133.469 237.271 134.515 236.369 135.2C235.473 135.88 234.333 136.22 232.95 136.22C231.239 136.22 229.833 135.637 228.731 134.471C227.63 133.299 227.079 131.699 227.079 129.672C227.079 127.527 227.633 125.863 228.74 124.68C229.848 123.49 231.304 122.896 233.108 122.896C234.685 122.896 235.965 123.361 236.949 124.293C237.535 124.844 237.975 125.635 238.268 126.666L235.692 127.281C235.54 126.613 235.221 126.086 234.734 125.699C234.254 125.312 233.668 125.119 232.977 125.119C232.021 125.119 231.245 125.462 230.647 126.147C230.056 126.833 229.76 127.943 229.76 129.479C229.76 131.107 230.053 132.268 230.639 132.959C231.225 133.65 231.986 133.996 232.924 133.996C233.615 133.996 234.21 133.776 234.708 133.337C235.206 132.897 235.563 132.206 235.78 131.263ZM240.017 129.637C240.017 128.324 240.213 127.223 240.605 126.332C240.898 125.676 241.297 125.087 241.801 124.565C242.311 124.044 242.867 123.657 243.471 123.405C244.273 123.065 245.199 122.896 246.248 122.896C248.146 122.896 249.664 123.484 250.801 124.662C251.943 125.84 252.515 127.478 252.515 129.575C252.515 131.655 251.949 133.284 250.818 134.462C249.688 135.634 248.176 136.22 246.283 136.22C244.367 136.22 242.844 135.637 241.713 134.471C240.582 133.299 240.017 131.688 240.017 129.637ZM242.697 129.549C242.697 131.008 243.034 132.115 243.708 132.871C244.382 133.621 245.237 133.996 246.274 133.996C247.312 133.996 248.161 133.624 248.823 132.88C249.491 132.13 249.825 131.008 249.825 129.514C249.825 128.037 249.5 126.936 248.85 126.209C248.205 125.482 247.347 125.119 246.274 125.119C245.202 125.119 244.338 125.488 243.682 126.227C243.025 126.959 242.697 128.066 242.697 129.549ZM254.58 136V123.115H257.111L262.385 131.72V123.115H264.802V136H262.191L256.997 127.598V136H254.58ZM270.462 136V125.295H266.639V123.115H276.878V125.295H273.063V136H270.462ZM288.849 136H286.019L284.894 133.073H279.743L278.68 136H275.92L280.938 123.115H283.689L288.849 136ZM284.059 130.902L282.283 126.121L280.543 130.902H284.059ZM289.578 131.808L292.109 131.562C292.262 132.411 292.569 133.035 293.032 133.434C293.501 133.832 294.131 134.031 294.922 134.031C295.76 134.031 296.39 133.855 296.812 133.504C297.239 133.146 297.453 132.73 297.453 132.256C297.453 131.951 297.362 131.693 297.181 131.482C297.005 131.266 296.694 131.078 296.249 130.92C295.944 130.814 295.25 130.627 294.166 130.357C292.771 130.012 291.793 129.587 291.23 129.083C290.439 128.374 290.044 127.51 290.044 126.49C290.044 125.834 290.229 125.222 290.598 124.653C290.973 124.079 291.509 123.643 292.206 123.344C292.909 123.045 293.756 122.896 294.746 122.896C296.363 122.896 297.579 123.25 298.394 123.959C299.214 124.668 299.645 125.614 299.686 126.798L297.084 126.912C296.973 126.25 296.732 125.775 296.363 125.488C296 125.195 295.452 125.049 294.72 125.049C293.964 125.049 293.372 125.204 292.944 125.515C292.669 125.714 292.531 125.98 292.531 126.314C292.531 126.619 292.66 126.88 292.918 127.097C293.246 127.372 294.043 127.659 295.309 127.958C296.574 128.257 297.509 128.567 298.112 128.89C298.722 129.206 299.196 129.643 299.536 130.199C299.882 130.75 300.055 131.433 300.055 132.247C300.055 132.985 299.85 133.677 299.439 134.321C299.029 134.966 298.449 135.446 297.699 135.763C296.949 136.073 296.015 136.229 294.896 136.229C293.267 136.229 292.016 135.854 291.143 135.104C290.27 134.348 289.748 133.249 289.578 131.808ZM71.5918 160V147.115H81.1455V149.295H74.1934V152.151H80.6621V154.322H74.1934V157.829H81.3916V160H71.5918ZM82.9385 155.808L85.4697 155.562C85.6221 156.411 85.9297 157.035 86.3926 157.434C86.8613 157.832 87.4912 158.031 88.2822 158.031C89.1201 158.031 89.75 157.855 90.1719 157.504C90.5996 157.146 90.8135 156.73 90.8135 156.256C90.8135 155.951 90.7227 155.693 90.541 155.482C90.3652 155.266 90.0547 155.078 89.6094 154.92C89.3047 154.814 88.6104 154.627 87.5264 154.357C86.1318 154.012 85.1533 153.587 84.5908 153.083C83.7998 152.374 83.4043 151.51 83.4043 150.49C83.4043 149.834 83.5889 149.222 83.958 148.653C84.333 148.079 84.8691 147.643 85.5664 147.344C86.2695 147.045 87.1162 146.896 88.1064 146.896C89.7236 146.896 90.9395 147.25 91.7539 147.959C92.5742 148.668 93.0049 149.614 93.0459 150.798L90.4443 150.912C90.333 150.25 90.0928 149.775 89.7236 149.488C89.3604 149.195 88.8125 149.049 88.0801 149.049C87.3242 149.049 86.7324 149.204 86.3047 149.515C86.0293 149.714 85.8916 149.98 85.8916 150.314C85.8916 150.619 86.0205 150.88 86.2783 151.097C86.6064 151.372 87.4033 151.659 88.6689 151.958C89.9346 152.257 90.8691 152.567 91.4727 152.89C92.082 153.206 92.5566 153.643 92.8965 154.199C93.2422 154.75 93.415 155.433 93.415 156.247C93.415 156.985 93.21 157.677 92.7998 158.321C92.3896 158.966 91.8096 159.446 91.0596 159.763C90.3096 160.073 89.375 160.229 88.2559 160.229C86.627 160.229 85.376 159.854 84.5029 159.104C83.6299 158.348 83.1084 157.249 82.9385 155.808ZM98.5039 160V149.295H94.6807V147.115H104.92V149.295H101.105V160H98.5039ZM116.891 160H114.061L112.936 157.073H107.785L106.722 160H103.962L108.98 147.115H111.731L116.891 160ZM112.101 154.902L110.325 150.121L108.585 154.902H112.101ZM118.271 147.115H123.025C124.098 147.115 124.915 147.197 125.478 147.361C126.233 147.584 126.881 147.979 127.42 148.548C127.959 149.116 128.369 149.813 128.65 150.64C128.932 151.46 129.072 152.474 129.072 153.681C129.072 154.741 128.94 155.655 128.677 156.423C128.354 157.36 127.895 158.119 127.297 158.699C126.846 159.139 126.236 159.481 125.469 159.728C124.895 159.909 124.127 160 123.166 160H118.271V147.115ZM120.872 149.295V157.829H122.814C123.541 157.829 124.065 157.788 124.388 157.706C124.81 157.601 125.158 157.422 125.434 157.17C125.715 156.918 125.943 156.505 126.119 155.931C126.295 155.351 126.383 154.562 126.383 153.566C126.383 152.57 126.295 151.806 126.119 151.272C125.943 150.739 125.697 150.323 125.381 150.024C125.064 149.726 124.663 149.523 124.177 149.418C123.813 149.336 123.102 149.295 122.041 149.295H120.872ZM130.76 153.637C130.76 152.324 130.956 151.223 131.349 150.332C131.642 149.676 132.04 149.087 132.544 148.565C133.054 148.044 133.61 147.657 134.214 147.405C135.017 147.065 135.942 146.896 136.991 146.896C138.89 146.896 140.407 147.484 141.544 148.662C142.687 149.84 143.258 151.478 143.258 153.575C143.258 155.655 142.692 157.284 141.562 158.462C140.431 159.634 138.919 160.22 137.026 160.22C135.11 160.22 133.587 159.637 132.456 158.471C131.325 157.299 130.76 155.688 130.76 153.637ZM133.44 153.549C133.44 155.008 133.777 156.115 134.451 156.871C135.125 157.621 135.98 157.996 137.018 157.996C138.055 157.996 138.904 157.624 139.566 156.88C140.234 156.13 140.568 155.008 140.568 153.514C140.568 152.037 140.243 150.936 139.593 150.209C138.948 149.482 138.09 149.119 137.018 149.119C135.945 149.119 135.081 149.488 134.425 150.227C133.769 150.959 133.44 152.066 133.44 153.549ZM150.298 147.115H155.053C156.125 147.115 156.942 147.197 157.505 147.361C158.261 147.584 158.908 147.979 159.447 148.548C159.986 149.116 160.396 149.813 160.678 150.64C160.959 151.46 161.1 152.474 161.1 153.681C161.1 154.741 160.968 155.655 160.704 156.423C160.382 157.36 159.922 158.119 159.324 158.699C158.873 159.139 158.264 159.481 157.496 159.728C156.922 159.909 156.154 160 155.193 160H150.298V147.115ZM152.899 149.295V157.829H154.842C155.568 157.829 156.093 157.788 156.415 157.706C156.837 157.601 157.186 157.422 157.461 157.17C157.742 156.918 157.971 156.505 158.146 155.931C158.322 155.351 158.41 154.562 158.41 153.566C158.41 152.57 158.322 151.806 158.146 151.272C157.971 150.739 157.725 150.323 157.408 150.024C157.092 149.726 156.69 149.523 156.204 149.418C155.841 149.336 155.129 149.295 154.068 149.295H152.899ZM162.787 153.637C162.787 152.324 162.983 151.223 163.376 150.332C163.669 149.676 164.067 149.087 164.571 148.565C165.081 148.044 165.638 147.657 166.241 147.405C167.044 147.065 167.97 146.896 169.019 146.896C170.917 146.896 172.435 147.484 173.571 148.662C174.714 149.84 175.285 151.478 175.285 153.575C175.285 155.655 174.72 157.284 173.589 158.462C172.458 159.634 170.946 160.22 169.054 160.22C167.138 160.22 165.614 159.637 164.483 158.471C163.353 157.299 162.787 155.688 162.787 153.637ZM165.468 153.549C165.468 155.008 165.805 156.115 166.479 156.871C167.152 157.621 168.008 157.996 169.045 157.996C170.082 157.996 170.932 157.624 171.594 156.88C172.262 156.13 172.596 155.008 172.596 153.514C172.596 152.037 172.271 150.936 171.62 150.209C170.976 149.482 170.117 149.119 169.045 149.119C167.973 149.119 167.108 149.488 166.452 150.227C165.796 150.959 165.468 152.066 165.468 153.549ZM182.334 160V147.115H186.509C188.091 147.115 189.122 147.18 189.603 147.309C190.341 147.502 190.959 147.924 191.457 148.574C191.955 149.219 192.204 150.054 192.204 151.079C192.204 151.87 192.061 152.535 191.773 153.074C191.486 153.613 191.12 154.038 190.675 154.349C190.235 154.653 189.787 154.855 189.33 154.955C188.709 155.078 187.81 155.14 186.632 155.14H184.936V160H182.334ZM184.936 149.295V152.951H186.359C187.385 152.951 188.07 152.884 188.416 152.749C188.762 152.614 189.031 152.403 189.225 152.116C189.424 151.829 189.523 151.495 189.523 151.114C189.523 150.646 189.386 150.259 189.11 149.954C188.835 149.649 188.486 149.459 188.064 149.383C187.754 149.324 187.13 149.295 186.192 149.295H184.936ZM204.623 160H201.793L200.668 157.073H195.518L194.454 160H191.694L196.713 147.115H199.464L204.623 160ZM199.833 154.902L198.058 150.121L196.317 154.902H199.833ZM206.021 160V147.115H211.496C212.873 147.115 213.872 147.232 214.493 147.467C215.12 147.695 215.621 148.105 215.996 148.697C216.371 149.289 216.559 149.966 216.559 150.728C216.559 151.694 216.274 152.494 215.706 153.127C215.138 153.754 214.288 154.149 213.157 154.313C213.72 154.642 214.183 155.002 214.546 155.395C214.915 155.787 215.41 156.484 216.031 157.486L217.604 160H214.493L212.612 157.196C211.944 156.194 211.487 155.564 211.241 155.307C210.995 155.043 210.734 154.864 210.459 154.771C210.184 154.671 209.747 154.621 209.149 154.621H208.622V160H206.021ZM208.622 152.564H210.547C211.795 152.564 212.574 152.512 212.885 152.406C213.195 152.301 213.438 152.119 213.614 151.861C213.79 151.604 213.878 151.281 213.878 150.895C213.878 150.461 213.761 150.112 213.526 149.849C213.298 149.579 212.973 149.409 212.551 149.339C212.34 149.31 211.707 149.295 210.652 149.295H208.622V152.564ZM230.639 160H227.809L226.684 157.073H221.533L220.47 160H217.71L222.729 147.115H225.479L230.639 160ZM225.849 154.902L224.073 150.121L222.333 154.902H225.849ZM222.579 146.377L223.792 143.749H226.561L224.144 146.377H222.579Z" fill="white"/>
</svg>
